<svg xmlns="http://www.w3.org/2000/svg" version="1.1" xmlns:xlink="http://www.w3.org/1999/xlink" xmlns:svgjs="http://svgjs.com/svgjs" width="512" height="512" x="0" y="0" viewBox="0 0 100 100" style="enable-background:new 0 0 512 512" xml:space="preserve" class=""><g><path xmlns="http://www.w3.org/2000/svg" d="m27.8920898 67.3085938c-1.0766602.046875-2.1625977.0361328-3.3134766.0234375-.5351562-.0048828-1.081543-.0107422-1.644043-.0107422-.4858398 0-.9013672.3496094-.9853516.828125l-1.5097656 8.6591797c-.050293.2910156.0297852.5898438.2197266.8154297.1904297.2255859.4702148.3564453.765625.3564453h13.6245117v10.9238281c0 .5527344.4477539 1 1 1h7.1723633c.5522461 0 1-.4472656 1-1v-10.5517578h3.7060547v10.6474609c0 .5527344.4477539 1 1 1h7.2749023c.5522461 0 1-.4472656 1-1v-10.6669922l4.5810547-.1171875c9.8115234-.0068359 17.7915039-7.4404297 17.7915039-16.5771484 0-5.7587891-2.9042969-11.109375-7.6621094-14.2705078 2.7626953-2.8115234 4.3237305-6.5898438 4.3237305-10.5585938 0-8.3154297-6.765625-15.0810547-15.0844727-15.0810547l-3.5668945.0107422v-10.6738281c0-.5527344-.4477539-1-1-1h-7.2861328c-.5522461 0-1 .4472656-1 1v10.2988281h-3.6962891v-10.3642578c0-.5527344-.4477539-1-1-1h-7.2631836c-.5522461 0-1 .4472656-1 1v10.7597656h-13.4462889c-.5522461 0-1 .4472656-1 1v7.5380859c0 .5527344.4477539 1 1 1l.9287109-.0029297c.6367188-.0039062 1.2250977-.0068359 1.8139648.0078125.8994141.0214844 1.8300781.0439453 2.7446289.125 1.980957.1767578 2.7827148 1.0595703 2.7670898 3.0458984-.0791016 10.2548828-.1713867 20.5097656-.277832 30.765625-.0161132 1.5937501-.4042968 2.0000001-1.9780273 2.0693361zm-.3339843-37.8730469c-.9794922-.0869141-1.9858398-.1113281-2.8735352-.1328125-.581543-.0146484-1.1645508-.0117188-1.7910156-.0087891v-5.5341797h13.4462891c.5522461 0 1-.4472656 1-1v-10.7597656h5.2631836v10.3642578c0 .5527344.4477539 1 1 1h5.6962891c.5522461 0 1-.4472656 1-1v-10.2988281h5.2861328v10.6767578c0 .265625.105957.5205078.2939453.7080078.1884766.1884766.487793.2841797.7089844.2919922l4.5668945-.0136719c7.2133789 0 13.081543 5.8681641 13.081543 13.0810547 0 3.8369141-1.6831055 7.46875-4.6181641 9.9648438-.2495117.2119141-.3793945.5341797-.347168.8603516s.2226562.6162109.5092773.7753906c4.8076172 2.671875 7.7944336 7.7412109 7.7944336 13.2285156 0 8.0380859-7.0898438 14.5771484-15.8041992 14.5771484-.0083008 0-.0170898 0-.0253906 0l-5.5683594.1425781c-.5424805.0146484-.9746094.4580078-.9746094 1v10.6416016h-5.2749023v-10.6474609c0-.5527344-.4477539-1-1-1h-5.7060547c-.5522461 0-1 .4472656-1 1v10.5517578h-5.1723633v-10.9238281c0-.5527344-.4477539-1-1-1h-13.4350586l1.1606445-6.6552734c.2636719.0019531.5249023.0048828.7832031.0068359 1.1777344.0136719 2.2910156.0234375 3.4213867-.0253906 2.6274414-.1162109 3.8637695-1.4023438 3.890625-4.046875.1064453-10.2568359.1987305-20.5136719.277832-30.7705078.0234376-3.0361329-1.5634764-4.7832032-4.5898436-5.053711z" fill="#ffffff" data-original="#000000" class=""></path><path xmlns="http://www.w3.org/2000/svg" d="m43.6162109 46.4355469h9.5380859c4.5043945 0 8.1689453-3.6650391 8.1689453-8.1689453s-3.6645508-8.1689453-8.1689453-8.1689453h-9.5380859c-.5522461 0-1 .4472656-1 1v14.3378906c0 .5527343.4477539 1 1 1zm1-14.3378907h8.5380859c3.4013672 0 6.1689453 2.7675781 6.1689453 6.1689453s-2.7675781 6.1689453-6.1689453 6.1689453h-8.5380859z" fill="#ffffff" data-original="#000000" class=""></path><path xmlns="http://www.w3.org/2000/svg" d="m43.6162109 69.5322266h11.918457c4.9404297 0 8.9594727-4.0185547 8.9594727-8.9589844s-4.019043-8.9599609-8.9594727-8.9599609h-11.918457c-.5522461 0-1 .4472656-1 1v15.9189453c0 .5527343.4477539 1 1 1zm1-15.9189454h10.918457c3.8374023 0 6.9594727 3.1220703 6.9594727 6.9599609 0 3.8369141-3.1220703 6.9589844-6.9594727 6.9589844h-10.918457z" fill="#ffffff" data-original="#000000" class=""></path></g></svg>