<svg xmlns="http://www.w3.org/2000/svg" version="1.1" xmlns:xlink="http://www.w3.org/1999/xlink" xmlns:svgjs="http://svgjs.com/svgjs" width="512" height="512" x="0" y="0" viewBox="0 0 44 60" style="enable-background:new 0 0 512 512" xml:space="preserve" class=""><g><g xmlns="http://www.w3.org/2000/svg" id="008---Retirement-Plans"><path id="Shape" d="m3 60h38c1.6568542 0 3-1.3431458 3-3v-54c0-1.65685425-1.3431458-3-3-3h-38c-1.65685425 0-3 1.34314575-3 3v54c0 1.6568542 1.34314575 3 3 3zm-1-57c0-.55228475.44771525-1 1-1h38c.5522847 0 1 .44771525 1 1v54c0 .5522847-.4477153 1-1 1h-38c-.55228475 0-1-.4477153-1-1z" fill="#ffffff" data-original="#000000" class=""></path><path id="Shape" d="m26 30v7c0 1.6568542 1.3431458 3 3 3h8c1.6568542 0 3-1.3431458 3-3v-7c0-1.6568542-1.3431458-3-3-3h-8c-1.6568542 0-3 1.3431458-3 3zm12 0v7c0 .5522847-.4477153 1-1 1h-8c-.5522847 0-1-.4477153-1-1v-7c0-.5522847.4477153-1 1-1h8c.5522847 0 1 .4477153 1 1z" fill="#ffffff" data-original="#000000" class=""></path><path id="Shape" d="m37 42h-8c-1.6568542 0-3 1.3431458-3 3v7c0 1.6568542 1.3431458 3 3 3h8c1.6568542 0 3-1.3431458 3-3v-7c0-1.6568542-1.3431458-3-3-3zm1 10c0 .5522847-.4477153 1-1 1h-8c-.5522847 0-1-.4477153-1-1v-7c0-.5522847.4477153-1 1-1h8c.5522847 0 1 .4477153 1 1z" fill="#ffffff" data-original="#000000" class=""></path><path id="Shape" d="m22 23c3.546 0 6.761-.822 8.6-2.2.2858125-.2143594.4355547-.5649147.3928203-.9196152-.0427344-.3547006-.2714531-.6596589-.6-.8-.3285469-.1403412-.7070078-.0947442-.9928203.1196152-.5794533.4071016-1.215581.7268501-1.888.949-1.0701319-2.2386075-1.5885907-4.7009436-1.512-7.181-.0852741-2.5843404.4847491-5.14824083 1.657-7.453.2844266-.47358417.1310842-1.08807335-.3425-1.3725s-1.0880734-.13108417-1.3725.3425c-1.2308072 2.31559487-1.8878762 4.89277288-1.916 7.515h-7.026c-.5522847 0-1 .4477153-1 1s.4477153 1 1 1h.973c-.0331357.669595-.0998865 1.3371028-.2 2h-.773c-.5522847 0-1 .4477153-1 1s.4477153 1 1 1h.358c-.2002264.7487079-.4815582 1.4733304-.839 2.161-.6838172-.2233152-1.3305744-.5471994-1.919-.961-.2858125-.2143594-.6642734-.2599564-.9928203-.1196152-.3285469.1403411-.5572656.4452994-.6.8-.0427344.3547005.1070078.7052558.3928203.9196152 1.839 1.378 5.054 2.2 8.6 2.2zm-2.029-9h4.059c.0306667.684.0916667 1.3506667.183 2h-4.42c.088-.649.148-1.317.178-2zm-.547 4h5.163c.2247533.922036.5448089 1.8181918.955 2.674-2.3325608.4313309-4.7244392.4313309-7.057 0 .4030097-.8571267.7176345-1.7530872.939-2.674z" fill="#ffffff" data-original="#000000" class=""></path><path id="Path" d="m31.293 35.707c.3904999.3903819 1.0235001.3903819 1.414 0l3-3c.3789722-.3923789.3735524-1.0160848-.0121814-1.4018186s-1.0094397-.3911536-1.4018186-.0121814l-2.293 2.293-.293-.293c-.3923789-.3789722-1.0160848-.3735524-1.4018186.0121814s-.3911536 1.0094397-.0121814 1.4018186z" fill="#ffffff" data-original="#000000" class=""></path><path id="Path" d="m34.293 46.293-2.293 2.293-.293-.293c-.3923789-.3789722-1.0160848-.3735524-1.4018186.0121814s-.3911536 1.0094397-.0121814 1.4018186l1 1c.3904999.3903819 1.0235001.3903819 1.414 0l3-3c.3789722-.3923789.3735524-1.0160848-.0121814-1.4018186s-1.0094397-.3911536-1.4018186-.0121814z" fill="#ffffff" data-original="#000000" class=""></path><path id="Path" d="m7 30h2c.55228475 0 1-.4477153 1-1s-.44771525-1-1-1h-2c-.55228475 0-1 .4477153-1 1s.44771525 1 1 1z" fill="#ffffff" data-original="#000000" class=""></path><path id="Path" d="m13 30h8c.5522847 0 1-.4477153 1-1s-.4477153-1-1-1h-8c-.5522847 0-1 .4477153-1 1s.4477153 1 1 1z" fill="#ffffff" data-original="#000000" class=""></path><path id="Path" d="m21 32h-1c-.5522847 0-1 .4477153-1 1s.4477153 1 1 1h1c.5522847 0 1-.4477153 1-1s-.4477153-1-1-1z" fill="#ffffff" data-original="#000000" class=""></path><path id="Path" d="m7 34h9c.5522847 0 1-.4477153 1-1s-.4477153-1-1-1h-9c-.55228475 0-1 .4477153-1 1s.44771525 1 1 1z" fill="#ffffff" data-original="#000000" class=""></path><path id="Path" d="m7 38h6c.5522847 0 1-.4477153 1-1s-.4477153-1-1-1h-6c-.55228475 0-1 .4477153-1 1s.44771525 1 1 1z" fill="#ffffff" data-original="#000000" class=""></path><path id="Path" d="m7 45h2c.55228475 0 1-.4477153 1-1s-.44771525-1-1-1h-2c-.55228475 0-1 .4477153-1 1s.44771525 1 1 1z" fill="#ffffff" data-original="#000000" class=""></path><path id="Path" d="m21 43h-8c-.5522847 0-1 .4477153-1 1s.4477153 1 1 1h8c.5522847 0 1-.4477153 1-1s-.4477153-1-1-1z" fill="#ffffff" data-original="#000000" class=""></path><path id="Path" d="m21 47h-1c-.5522847 0-1 .4477153-1 1s.4477153 1 1 1h1c.5522847 0 1-.4477153 1-1s-.4477153-1-1-1z" fill="#ffffff" data-original="#000000" class=""></path><path id="Path" d="m7 49h9c.5522847 0 1-.4477153 1-1s-.4477153-1-1-1h-9c-.55228475 0-1 .4477153-1 1s.44771525 1 1 1z" fill="#ffffff" data-original="#000000" class=""></path><path id="Path" d="m7 53h6c.5522847 0 1-.4477153 1-1s-.4477153-1-1-1h-6c-.55228475 0-1 .4477153-1 1s.44771525 1 1 1z" fill="#ffffff" data-original="#000000" class=""></path></g></g></svg>